<svg width="19" height="19" viewBox="0 0 19 19" fill="none" xmlns="http://www.w3.org/2000/svg">
<path d="M7.18979 19C7.66396 19 8.03889 18.7888 8.30354 18.3774L18.7243 1.83441C18.9228 1.512 19 1.26741 19 1.0117C19 0.400234 18.603 0 17.9965 0C17.5554 0 17.3128 0.144529 17.0482 0.566998L7.14568 16.4763L2.00696 9.69456C1.73128 9.30544 1.4556 9.1498 1.05862 9.1498C0.430064 9.1498 0 9.58338 0 10.1949C0 10.4506 0.110273 10.7396 0.319791 11.0064L6.04295 18.3552C6.37377 18.7888 6.71561 19 7.18979 19Z" fill="#0A84FF"/>
</svg>
